<svg xmlns="http://www.w3.org/2000/svg" viewBox="0 0 500 500"><g id="freepik--background-simple--inject-34"><path d="M462,302.53c-14.73,39.44-44.81,82.12-87.14,94.75-64,19.1-71.6,70.66-186.16,65.88a231.54,231.54,0,0,1-49.54-7.27,190.92,190.92,0,0,1-23.29-7.75C49,421,14.06,361.37,11.16,299c-3.82-82.1,53.46-121.24,90.69-144.15S184,43.1,296.61,46.91a224.06,224.06,0,0,1,50.92,7.44C385.44,64.61,424,87.3,446.37,120.48q2.52,3.73,4.82,7.64C481.15,179,482.1,248.77,462,302.53Z" style="fill:#FBC02D"></path><path d="M462,302.53c-14.73,39.44-44.81,82.12-87.14,94.75-64,19.1-71.6,70.66-186.16,65.88a231.54,231.54,0,0,1-49.54-7.27,190.92,190.92,0,0,1-23.29-7.75C49,421,14.06,361.37,11.16,299c-3.82-82.1,53.46-121.24,90.69-144.15S184,43.1,296.61,46.91a224.06,224.06,0,0,1,50.92,7.44C385.44,64.61,424,87.3,446.37,120.48q2.52,3.73,4.82,7.64C481.15,179,482.1,248.77,462,302.53Z" style="fill:#fff;opacity:0.7000000000000001"></path></g><g id="freepik--Floor--inject-34"><path d="M486.63,427.59H12.75a.5.5,0,0,1-.5-.5.5.5,0,0,1,.5-.5H486.63a.5.5,0,0,1,.5.5A.5.5,0,0,1,486.63,427.59Z" style="fill:#263238"></path></g><g id="freepik--Banknotes--inject-34"><rect x="167.23" y="107.12" width="96" height="193.21" transform="translate(419.91 418.03) rotate(-177.11)" style="fill:#FBC02D"></rect><path d="M258.3,303.12h0l-95.87-4.83a.51.51,0,0,1-.48-.53l9.73-193a.53.53,0,0,1,.17-.35.51.51,0,0,1,.36-.12l95.87,4.83a.51.51,0,0,1,.35.17.5.5,0,0,1,.13.36l-9.73,193a.51.51,0,0,1-.17.34A.46.46,0,0,1,258.3,303.12ZM163,297.31l94.87,4.79,9.68-192-94.87-4.78Z" style="fill:#263238"></path><rect x="181.81" y="121.79" width="66.83" height="163.86" transform="translate(419.92 418.03) rotate(-177.11)" style="fill:#fff"></rect><path d="M244.47,287.73h0l-66.75-3.37a.48.48,0,0,1-.47-.52l8.25-163.65a.49.49,0,0,1,.52-.47l66.75,3.36a.53.53,0,0,1,.35.17.49.49,0,0,1,.12.36L245,287.26a.5.5,0,0,1-.16.34A.48.48,0,0,1,244.47,287.73Zm-66.22-4.34L244,286.71l8.2-162.65-65.75-3.32Z" style="fill:#263238"></path><path d="M200.05,203c-.64,12.73,5.63,23.4,14,23.82s15.69-9.56,16.33-22.29-5.62-23.4-14-23.82S200.7,190.22,200.05,203Z" style="fill:#fff"></path><path d="M214.57,227.29H214c-4.23-.21-8.06-2.89-10.8-7.54a30.48,30.48,0,0,1-3.68-16.81h0a30.47,30.47,0,0,1,5.36-16.35c3.18-4.35,7.26-6.62,11.49-6.41,8.64.43,15.14,11.35,14.48,24.34C230.25,217.24,223,227.29,214.57,227.29ZM200.05,203l.5,0a29.48,29.48,0,0,0,3.56,16.25c2.55,4.35,6.1,6.86,10,7.05,8.1.42,15.18-9.38,15.81-21.82s-5.45-22.89-13.54-23.29c-3.87-.2-7.65,1.93-10.64,6A29.61,29.61,0,0,0,200.55,203Z" style="fill:#263238"></path><rect x="151.29" y="103.64" width="96" height="193.21" transform="translate(410.18 388.23) rotate(176.58)" style="fill:#FBC02D"></rect><path d="M157.14,300a.51.51,0,0,1-.5-.47L145.12,106.7a.49.49,0,0,1,.47-.52l95.82-5.73a.48.48,0,0,1,.36.12.51.51,0,0,1,.17.35l11.53,192.86a.49.49,0,0,1-.13.36.51.51,0,0,1-.34.17L157.17,300Zm-11-192.9L157.61,299l94.83-5.67L241,101.47Z" style="fill:#263238"></path><rect x="165.88" y="118.31" width="66.83" height="163.86" transform="translate(410.18 388.24) rotate(176.58)" style="fill:#fff"></rect><path d="M170.82,284.52a.51.51,0,0,1-.5-.47l-9.77-163.57A.5.5,0,0,1,161,120l66.71-4a.53.53,0,0,1,.36.13.51.51,0,0,1,.17.34L238,280a.53.53,0,0,1-.13.36.51.51,0,0,1-.34.17l-66.72,4Zm-9.24-163.6,9.71,162.57L237,279.56,227.29,117Z" style="fill:#263238"></path><path d="M184.13,201.15c.76,12.73,8.17,22.64,16.54,22.14s14.55-11.23,13.78-23.95-8.16-22.65-16.54-22.15S183.37,188.42,184.13,201.15Z" style="fill:#FBC02D"></path><path d="M200.07,223.81c-8.38,0-15.68-10-16.44-22.63h0c-.77-13,5.62-24,14.25-24.48s16.3,9.62,17.07,22.61a30.45,30.45,0,0,1-3.53,16.84c-2.69,4.67-6.5,7.38-10.72,7.64Zm-15.44-22.69c.74,12.43,7.94,22.16,16,21.67,3.88-.23,7.4-2.77,9.91-7.14A29.49,29.49,0,0,0,214,199.36c-.75-12.43-7.92-22.14-16-21.67s-14.05,11-13.31,23.43Z" style="fill:#263238"></path><rect x="131.91" y="100.16" width="96" height="193.21" transform="translate(395.47 353.65) rotate(168.48)" style="fill:#FBC02D"></rect><path d="M152.16,301.5a.46.46,0,0,1-.28-.08.47.47,0,0,1-.21-.32L113.1,111.79a.49.49,0,0,1,.39-.59L207.55,92a.51.51,0,0,1,.38.08.49.49,0,0,1,.21.31l38.57,189.32a.49.49,0,0,1-.39.59L152.26,301.5Zm-38-189.42,38.37,188.34,93.08-19L207.26,93.11Z" style="fill:#263238"></path><rect x="146.49" y="114.83" width="66.83" height="163.86" transform="translate(395.47 353.65) rotate(168.48)" style="fill:#fff"></rect><path d="M163.52,284.21a.49.49,0,0,1-.49-.4L130.32,123.25a.48.48,0,0,1,.07-.37.47.47,0,0,1,.32-.21l65.48-13.35a.5.5,0,0,1,.59.39l32.71,160.56a.51.51,0,0,1-.07.38.47.47,0,0,1-.32.21l-65.48,13.35ZM131.4,123.54l32.51,159.58L228.41,270,195.9,110.4Z" style="fill:#263238"></path><path d="M165,199.8c2.55,12.49,11.27,21.26,19.49,19.59s12.82-13.16,10.28-25.66-11.27-21.26-19.49-19.59S162.48,187.3,165,199.8Z" style="fill:#FBC02D"></path><path d="M182.46,220.09c-3.48,0-7-1.67-10.18-4.83a32.67,32.67,0,0,1-6.62-32.53c2-5,5.39-8.23,9.54-9.08s8.52.8,12.32,4.62a32.64,32.64,0,0,1,6.63,32.53c-2,5-5.39,8.23-9.54,9.08A11.11,11.11,0,0,1,182.46,220.09Zm-5.12-45.65a9.74,9.74,0,0,0-1.94.19c-3.81.78-6.94,3.78-8.81,8.47a29.45,29.45,0,0,0-1.08,16.6h0A29.5,29.5,0,0,0,173,214.55c3.56,3.58,7.62,5.12,11.42,4.35s6.94-3.78,8.81-8.47a31.66,31.66,0,0,0-6.4-31.45C183.86,176,180.56,174.44,177.34,174.44Z" style="fill:#263238"></path><rect x="117.17" y="110.18" width="96" height="193.21" transform="translate(390.05 346.29) rotate(160.43)" style="fill:#FBC02D"></rect><path d="M152.3,314.38a.5.5,0,0,1-.47-.33L87.11,132a.5.5,0,0,1,.3-.64l90.45-32.16a.5.5,0,0,1,.38,0,.53.53,0,0,1,.26.29l64.72,182a.5.5,0,0,1,0,.38.53.53,0,0,1-.29.26l-90.45,32.15A.45.45,0,0,1,152.3,314.38ZM88.22,132.14l64.38,181.1,89.51-31.82-64.39-181.1Z" style="fill:#263238"></path><rect x="131.75" y="124.85" width="66.83" height="163.86" transform="translate(390.05 346.29) rotate(160.43)" style="fill:#fff"></rect><path d="M161.12,295.67a.51.51,0,0,1-.47-.33L105.76,141a.53.53,0,0,1,0-.39.51.51,0,0,1,.29-.25l63-22.39a.5.5,0,0,1,.64.31l54.88,154.39a.5.5,0,0,1-.3.64l-63,22.38A.51.51,0,0,1,161.12,295.67ZM106.87,141.08l54.55,153.45,62-22L168.9,119Z" style="fill:#263238"></path><path d="M150.85,211.87c4.27,12,14.14,19.48,22.05,16.67s10.85-14.83,6.57-26.85-14.14-19.47-22-16.66S146.58,199.86,150.85,211.87Z" style="fill:#FBC02D"></path><path d="M169.4,229.63a15.43,15.43,0,0,1-9.19-3.47A30.47,30.47,0,0,1,150.38,212h0a30.43,30.43,0,0,1-1.29-17.16c1.28-5.24,4.19-8.91,8.17-10.32s8.55-.41,12.86,2.84a32.69,32.69,0,0,1,11.12,31.29c-1.29,5.23-4.19,8.9-8.18,10.32A10.78,10.78,0,0,1,169.4,229.63ZM151.32,211.7a29.58,29.58,0,0,0,9.49,13.66c4,3,8.26,4,11.92,2.7s6.33-4.71,7.54-9.61a31.71,31.71,0,0,0-10.76-30.25c-4-3-8.25-4-11.91-2.7s-6.34,4.72-7.54,9.62a29.49,29.49,0,0,0,1.26,16.58Z" style="fill:#263238"></path><rect x="106.51" y="121.53" width="96" height="193.21" transform="translate(396.72 331.21) rotate(150.34)" style="fill:#FBC02D"></rect><path d="M160.61,326.33a.52.52,0,0,1-.44-.26L64.56,158.18a.5.5,0,0,1,.19-.68L148.16,110a.47.47,0,0,1,.38,0,.52.52,0,0,1,.31.23l95.61,167.89a.56.56,0,0,1,0,.38.48.48,0,0,1-.24.3l-83.41,47.51A.59.59,0,0,1,160.61,326.33ZM65.68,158.12l95.12,167,82.54-47-95.11-167Z" style="fill:#263238"></path><rect x="121.09" y="136.2" width="66.83" height="163.86" transform="translate(396.72 331.21) rotate(150.34)" style="fill:#fff"></rect><path d="M166,306.36l-.13,0a.52.52,0,0,1-.31-.23L84.49,163.72a.5.5,0,0,1,.19-.68L142.76,130a.52.52,0,0,1,.68.19l81.09,142.39a.51.51,0,0,1-.19.68l-58.07,33.07A.47.47,0,0,1,166,306.36ZM85.61,163.66,166.2,305.18l57.21-32.58L142.82,131.08Z" style="fill:#263238"></path><path d="M141.31,225.64c6.31,11.08,17.34,16.7,24.63,12.55s8.08-16.5,1.77-27.58-17.34-16.7-24.63-12.54S135,214.56,141.31,225.64Z" style="fill:#FBC02D"></path><path d="M160.62,240.05c-6.82,0-14.76-5.4-19.74-14.16h0a30.48,30.48,0,0,1-4.28-16.66c.34-5.39,2.56-9.5,6.24-11.6s8.34-1.9,13.15.55A32.68,32.68,0,0,1,172.42,227c-.34,5.38-2.56,9.5-6.24,11.59A11,11,0,0,1,160.62,240.05ZM141.75,225.4c6.16,10.82,16.9,16.36,23.94,12.36,3.37-1.93,5.41-5.76,5.73-10.79a31.71,31.71,0,0,0-15.88-27.9c-4.5-2.29-8.83-2.49-12.21-.57s-5.41,5.75-5.73,10.79a29.44,29.44,0,0,0,4.15,16.11Z" style="fill:#263238"></path><rect x="96.55" y="137.42" width="96" height="193.21" transform="translate(408.34 311.99) rotate(138.17)" style="fill:#FBC02D"></rect><path d="M173.22,338.52a.52.52,0,0,1-.38-.17L44,194.39a.48.48,0,0,1,0-.7l71.52-64a.52.52,0,0,1,.71,0l128.86,144a.52.52,0,0,1,.12.36.48.48,0,0,1-.16.35l-71.53,64A.46.46,0,0,1,173.22,338.52ZM45.06,194.1l128.2,143.21L244,274,115.84,130.74Z" style="fill:#263238"></path><rect x="111.13" y="152.1" width="66.83" height="163.86" transform="translate(408.34 311.99) rotate(138.17)" style="fill:#fff"></rect><path d="M174.3,317.86a.52.52,0,0,1-.38-.17L64.64,195.6a.48.48,0,0,1,0-.7l49.79-44.58a.5.5,0,0,1,.71,0L224.46,272.45a.49.49,0,0,1,.13.36.54.54,0,0,1-.16.35l-49.8,44.57A.5.5,0,0,1,174.3,317.86ZM65.72,195.31,174.33,316.65l49.06-43.9L114.77,151.4Z" style="fill:#263238"></path><path d="M133.23,244.16c8.51,9.5,20.47,12.66,26.72,7.07s4.42-17.83-4.08-27.33-20.47-12.67-26.72-7.08S124.73,234.66,133.23,244.16Z" style="fill:#FBC02D"></path><path d="M152.11,254.5a18.89,18.89,0,0,1-4.8-.66,30.48,30.48,0,0,1-14.45-9.35h0a30.42,30.42,0,0,1-7.69-15.39c-.8-5.33.5-9.83,3.65-12.65s7.76-3.62,13-2.23A32.66,32.66,0,0,1,163.94,239c.79,5.34-.51,9.83-3.66,12.65A11.94,11.94,0,0,1,152.11,254.5Zm-18.5-10.68a29.38,29.38,0,0,0,13.95,9.05c4.88,1.29,9.16.58,12.06-2s4.07-6.77,3.33-11.76a31.69,31.69,0,0,0-21.41-23.92c-4.88-1.29-9.16-.57-12,2S125.41,224,126.15,229a29.49,29.49,0,0,0,7.46,14.87Z" style="fill:#263238"></path><rect x="90.56" y="153.52" width="96" height="193.21" transform="translate(421.69 290.13) rotate(127.03)" style="fill:#FBC02D"></rect><path d="M186.78,347.12a.54.54,0,0,1-.3-.1L32.23,230.67a.51.51,0,0,1-.1-.7l57.81-76.64a.53.53,0,0,1,.33-.19.48.48,0,0,1,.37.09L244.89,269.58a.53.53,0,0,1,.19.33.48.48,0,0,1-.09.37l-57.81,76.64A.51.51,0,0,1,186.78,347.12Zm-153.55-117L186.68,345.92l57.21-75.84L90.44,154.33Z" style="fill:#263238"></path><rect x="105.14" y="168.2" width="66.83" height="163.86" transform="translate(421.69 290.13) rotate(127.03)" style="fill:#fff"></rect><path d="M183.85,326.64a.47.47,0,0,1-.3-.1L52.73,227.87a.5.5,0,0,1-.2-.33.52.52,0,0,1,.1-.37l40.25-53.36a.44.44,0,0,1,.33-.19.49.49,0,0,1,.37.09l130.81,98.68a.48.48,0,0,1,.2.33.5.5,0,0,1-.1.37l-40.24,53.35A.51.51,0,0,1,183.85,326.64ZM53.73,227.37l130,98.07,39.64-52.56-130-98.07Z" style="fill:#263238"></path><path d="M129.41,262.25c10.18,7.68,22.53,8.48,27.58,1.78s.9-18.35-9.28-26-22.53-8.47-27.58-1.78S119.23,254.57,129.41,262.25Z" style="fill:#FBC02D"></path><path d="M146.47,269.08c-.45,0-.91,0-1.38-.05a32.67,32.67,0,0,1-26.5-20c-1.81-5.08-1.41-9.74,1.14-13.12,5.21-6.91,17.89-6.15,28.28,1.68a30.45,30.45,0,0,1,10.52,13.61c1.82,5.08,1.41,9.74-1.14,13.12C155.06,267.42,151.22,269.08,146.47,269.08Zm-15.8-36.91c-4.27,0-7.94,1.43-10.14,4.35-2.34,3.1-2.69,7.43-1,12.18A31.71,31.71,0,0,0,145.16,268c5,.33,9.1-1.2,11.43-4.3s2.7-7.43,1-12.18a29.45,29.45,0,0,0-10.18-13.15C142,234.28,135.86,232.17,130.67,232.17Z" style="fill:#263238"></path></g><g id="freepik--Plant--inject-34"><path d="M110.62,307.68c.07.05,2.35-5.64,2.45-6,1.18-4.34.91-13.44-3.32-16.19a6,6,0,0,0-8.51,2.53c-1.64,3.17-.63,7.44.83,10.47C103.78,302,110.62,307.67,110.62,307.68Z" style="fill:#263238"></path><path d="M22,294.37c3.39,2,12.2,3,12.21,3s-1.15-6-1.28-6.37c-1.41-4.28-6.65-11.71-11.7-11.68a6,6,0,0,0-5.7,6.82C15.91,289.64,19.11,292.64,22,294.37Z" style="fill:#263238"></path><path d="M21.78,320.21c3.65,1,11.78-.25,12.43-.36a106.88,106.88,0,0,0,3.07,13.77c.76,2.64,1.61,5.27,2.49,7.89-.58-1.13-1.11-2.15-1.2-2.28-2.49-3.76-9.51-9.55-14.37-8.18a6,6,0,0,0-3.7,8.08c1.3,3.31,5.18,5.37,8.42,6.27s10.25,0,12.09-.3c.35,1,.68,2,1,3,1.7,4.81,3.41,9.61,4.94,14.36.54,1.68,1,3.35,1.49,5-.52-1-1-1.86-1-2-2.5-3.76-9.52-9.55-14.38-8.18a6,6,0,0,0-3.7,8.08c1.31,3.31,5.19,5.36,8.43,6.27s9.57.06,11.75-.25c.44,1.72.88,3.44,1.23,5.13.21,1.16.49,2.27.63,3.44s.34,2.31.51,3.45c.24,2.2.5,4.48.68,6.63.13,1.5.24,2.93.34,4.37-.52-1.67-1.6-4.92-1.72-5.19-1.9-4.08-8-10.87-13-10.26a6,6,0,0,0-4.88,7.43c.79,3.47,4.31,6.09,7.38,7.48C44.1,395.43,52,395.44,53,395.44c.17,2.38.31,4.71.41,6.9.28,6,.35,11.22.34,15.34h3.32c-.08-4.17-.26-9.43-.68-15.51-.16-2.43-.38-5-.63-7.66A66.44,66.44,0,0,0,63,392.16c2.2,3.11,8.35,7.19,9.15,7.71-1.18,2.09-2.34,4.1-3.47,6-2.74,4.61-5.28,8.59-7.41,11.83h3.88c1.84-3,3.91-6.42,6.12-10.32,1.2-2.11,2.44-4.39,3.7-6.74.91.32,8.42,2.87,12.11,2.51,3.35-.31,7.53-1.65,9.4-4.68a6,6,0,0,0-2.22-8.61c-4.54-2.2-12.47,2.26-15.59,5.52-.18.19-1.94,2.5-3,4,.51-1,1-1.89,1.52-2.89,1-2,2-4,3-6.1l1.41-3.19c.5-1,.88-2.23,1.34-3.35,1-2.63,1.87-5.34,2.69-8.09,1.72.89,7.89,4,11.27,4.16s7.69-.5,10-3.21a6,6,0,0,0-.89-8.85c-4.16-2.86-12.67.35-16.24,3.1-.23.17-2.57,2.43-3.83,3.69.48-1.65,1-3.3,1.4-5,1.26-4.88,2.37-9.86,3.5-14.83.35-1.52.71-3,1.07-4.55.61.33,7.87,4.14,11.65,4.35,3.36.2,7.69-.49,10-3.21a6,6,0,0,0-.89-8.84c-4.16-2.86-12.67.35-16.25,3.09-.26.21-3.63,3.47-4.44,4.34.79-3.34,1.6-6.66,2.54-9.89a105.88,105.88,0,0,1,4.58-12.85c.28.15,7.84,4.16,11.71,4.38,3.36.19,7.7-.49,10-3.21a6,6,0,0,0-.89-8.84c-4.15-2.87-12.67.34-16.24,3.09-.24.18-2.8,2.66-4,3.87l-.24-.17a77.37,77.37,0,0,1,6.85-11.88c1.43-2.08,2.91-4,4.38-5.82,1.34.9,7.46,4.9,10.92,5.49s7.71.35,10.3-2.1a6,6,0,0,0,.08-8.88c-3.81-3.31-12.63-1.05-16.48,1.29-.21.12-2.2,1.65-3.63,2.79.68-.82,1.37-1.67,2-2.44,2.5-2.88,5-5.37,7.17-7.56,1.26-1.23,2.42-2.32,3.52-3.33,1.77.2,8.88.89,12.16-.17s7-3.24,8.17-6.6a6,6,0,0,0-4-7.93c-4.91-1.17-11.69,4.89-14,8.74-.2.34-2.76,5.9-2.67,5.92h.1c-1.07.95-2.22,2-3.45,3.13-2.25,2.14-4.78,4.58-7.35,7.42a108.8,108.8,0,0,0-7.86,9.57,78.11,78.11,0,0,0-7.18,11.83l-.06.16c.21-1.47.67-5.58.67-5.9,0-4.5-2.67-13.21-7.48-14.75a6,6,0,0,0-7.54,4.7c-.74,3.49,1.36,7.34,3.57,9.88,2.49,2.87,10,6.3,10.57,6.57a105,105,0,0,0-5,13.17c-.82,2.62-1.56,5.28-2.28,8,.15-1.27.27-2.41.27-2.57,0-4.51-2.67-13.21-7.48-14.75a6,6,0,0,0-7.55,4.7c-.74,3.48,1.37,7.33,3.57,9.88s8.56,5.63,10.25,6.41c-.27,1-.54,2.06-.8,3.09-1.24,4.94-2.46,9.89-3.81,14.7-.47,1.69-1,3.35-1.52,5,.13-1.13.22-2.08.22-2.23,0-4.5-2.67-13.21-7.47-14.75a6,6,0,0,0-7.55,4.7c-.74,3.49,1.37,7.34,3.57,9.88s8,5.33,9.94,6.27c-.58,1.68-1.17,3.36-1.81,5-.46,1.09-.84,2.16-1.36,3.22l-1.49,3.16c-1,2-2,4-3.09,5.9-.71,1.33-1.42,2.58-2.12,3.84.49-1.68,1.38-5,1.42-5.28a23.2,23.2,0,0,0-1.65-11.58,7.33,7.33,0,0,0,.09-1.32,6,6,0,0,0-6.6-6c-5,.67-9.16,8.77-10,13.2-.05.27-.24,3.16-.34,5-.11-1.08-.2-2.14-.32-3.25-.24-2.2-.54-4.4-.85-6.76-.19-1.13-.38-2.28-.58-3.44s-.49-2.34-.73-3.53c-.62-2.74-1.39-5.48-2.22-8.23,1.93-.21,8.77-1.05,11.7-2.75s6.14-4.66,6.57-8.2A6,6,0,0,0,63.55,350c-5-.1-10.37,7.28-11.84,11.54-.09.27-.79,3.44-1.15,5.2-.51-1.65-1-3.3-1.59-4.95-1.65-4.76-3.47-9.53-5.26-14.3-.55-1.46-1.08-2.92-1.62-4.38.69-.07,8.84-.9,12.12-2.8,2.91-1.69,6.14-4.66,6.57-8.2a6,6,0,0,0-5.63-6.88c-5-.1-10.37,7.28-11.84,11.54-.11.32-1.12,4.89-1.32,6.07-1.18-3.22-2.33-6.44-3.33-9.65A105.76,105.76,0,0,1,35.39,320c.32,0,8.84-.85,12.19-2.8,2.91-1.69,6.14-4.66,6.57-8.2a6,6,0,0,0-5.62-6.88c-5.05-.1-10.38,7.28-11.85,11.54-.09.28-.86,3.77-1.19,5.43H35.2a77.76,77.76,0,0,1-.84-13.69c0-2.52.22-4.93.45-7.27,1.6,0,8.92,0,12.13-1.45s6.62-4,7.43-7.42a6,6,0,0,0-4.83-7.46c-5-.65-11.12,6.09-13,10.17-.11.22-.92,2.59-1.49,4.32.12-1.05.22-2.14.36-3.15.49-3.78,1.17-7.22,1.8-10.25.37-1.73.74-3.28,1.11-4.73,1.57-.81,7.88-4.16,10-6.85s4-6.56,3.17-10a6,6,0,0,0-7.72-4.4c-4.74,1.73-7.06,10.54-6.89,15,0,.39.95,6.45,1,6.41l.1-.05c-.38,1.38-.77,2.88-1.16,4.51-.69,3-1.45,6.46-2,10.25a108.39,108.39,0,0,0-1.28,12.31,78.58,78.58,0,0,0,.54,13.84l0,.16c-.63-1.34-2.51-5-2.69-5.29-2.49-3.75-9.51-9.54-14.37-8.17a6,6,0,0,0-3.7,8.08C14.65,317.25,18.53,319.3,21.78,320.21Z" style="fill:#263238"></path><path d="M22,294.37c3.39,2,12.2,3,12.21,3s-1.15-6-1.28-6.37c-1.41-4.28-6.65-11.71-11.7-11.68a6,6,0,0,0-5.7,6.82C15.91,289.64,19.11,292.64,22,294.37Z" style="fill:#263238;opacity:0.30000000000000004"></path><path d="M110.62,307.68c.07.05,2.35-5.64,2.45-6,1.18-4.34.91-13.44-3.32-16.19a6,6,0,0,0-8.51,2.53c-1.64,3.17-.63,7.44.83,10.47C103.78,302,110.62,307.67,110.62,307.68Z" style="fill:#263238;opacity:0.30000000000000004"></path><path d="M21.78,320.21c3.65,1,11.78-.25,12.43-.36a106.88,106.88,0,0,0,3.07,13.77c.76,2.64,1.61,5.27,2.49,7.89-.58-1.13-1.11-2.15-1.2-2.28-2.49-3.76-9.51-9.55-14.37-8.18a6,6,0,0,0-3.7,8.08c1.3,3.31,5.18,5.37,8.42,6.27s10.25,0,12.09-.3c.35,1,.68,2,1,3,1.7,4.81,3.41,9.61,4.94,14.36.54,1.68,1,3.35,1.49,5-.52-1-1-1.86-1-2-2.5-3.76-9.52-9.55-14.38-8.18a6,6,0,0,0-3.7,8.08c1.31,3.31,5.19,5.36,8.43,6.27s9.57.06,11.75-.25c.44,1.72.88,3.44,1.23,5.13.21,1.16.49,2.27.63,3.44s.34,2.31.51,3.45c.24,2.2.5,4.48.68,6.63.13,1.5.24,2.93.34,4.37-.52-1.67-1.6-4.92-1.72-5.19-1.9-4.08-8-10.87-13-10.26a6,6,0,0,0-4.88,7.43c.79,3.47,4.31,6.09,7.38,7.48C44.1,395.43,52,395.44,53,395.44c.17,2.38.31,4.71.41,6.9.28,6,.35,11.22.34,15.34h3.32c-.08-4.17-.26-9.43-.68-15.51-.16-2.43-.38-5-.63-7.66A66.44,66.44,0,0,0,63,392.16c2.2,3.11,8.35,7.19,9.15,7.71-1.18,2.09-2.34,4.1-3.47,6-2.74,4.61-5.28,8.59-7.41,11.83h3.88c1.84-3,3.91-6.42,6.12-10.32,1.2-2.11,2.44-4.39,3.7-6.74.91.32,8.42,2.87,12.11,2.51,3.35-.31,7.53-1.65,9.4-4.68a6,6,0,0,0-2.22-8.61c-4.54-2.2-12.47,2.26-15.59,5.52-.18.19-1.94,2.5-3,4,.51-1,1-1.89,1.52-2.89,1-2,2-4,3-6.1l1.41-3.19c.5-1,.88-2.23,1.34-3.35,1-2.63,1.87-5.34,2.69-8.09,1.72.89,7.89,4,11.27,4.16s7.69-.5,10-3.21a6,6,0,0,0-.89-8.85c-4.16-2.86-12.67.35-16.24,3.1-.23.17-2.57,2.43-3.83,3.69.48-1.65,1-3.3,1.4-5,1.26-4.88,2.37-9.86,3.5-14.83.35-1.52.71-3,1.07-4.55.61.33,7.87,4.14,11.65,4.35,3.36.2,7.69-.49,10-3.21a6,6,0,0,0-.89-8.84c-4.16-2.86-12.67.35-16.25,3.09-.26.21-3.63,3.47-4.44,4.34.79-3.34,1.6-6.66,2.54-9.89a105.88,105.88,0,0,1,4.58-12.85c.28.15,7.84,4.16,11.71,4.38,3.36.19,7.7-.49,10-3.21a6,6,0,0,0-.89-8.84c-4.15-2.87-12.67.34-16.24,3.09-.24.18-2.8,2.66-4,3.87l-.24-.17a77.37,77.37,0,0,1,6.85-11.88c1.43-2.08,2.91-4,4.38-5.82,1.34.9,7.46,4.9,10.92,5.49s7.71.35,10.3-2.1a6,6,0,0,0,.08-8.88c-3.81-3.31-12.63-1.05-16.48,1.29-.21.12-2.2,1.65-3.63,2.79.68-.82,1.37-1.67,2-2.44,2.5-2.88,5-5.37,7.17-7.56,1.26-1.23,2.42-2.32,3.52-3.33,1.77.2,8.88.89,12.16-.17s7-3.24,8.17-6.6a6,6,0,0,0-4-7.93c-4.91-1.17-11.69,4.89-14,8.74-.2.34-2.76,5.9-2.67,5.92h.1c-1.07.95-2.22,2-3.45,3.13-2.25,2.14-4.78,4.58-7.35,7.42a108.8,108.8,0,0,0-7.86,9.57,78.11,78.11,0,0,0-7.18,11.83l-.06.16c.21-1.47.67-5.58.67-5.9,0-4.5-2.67-13.21-7.48-14.75a6,6,0,0,0-7.54,4.7c-.74,3.49,1.36,7.34,3.57,9.88,2.49,2.87,10,6.3,10.57,6.57a105,105,0,0,0-5,13.17c-.82,2.62-1.56,5.28-2.28,8,.15-1.27.27-2.41.27-2.57,0-4.51-2.67-13.21-7.48-14.75a6,6,0,0,0-7.55,4.7c-.74,3.48,1.37,7.33,3.57,9.88s8.56,5.63,10.25,6.41c-.27,1-.54,2.06-.8,3.09-1.24,4.94-2.46,9.89-3.81,14.7-.47,1.69-1,3.35-1.52,5,.13-1.13.22-2.08.22-2.23,0-4.5-2.67-13.21-7.47-14.75a6,6,0,0,0-7.55,4.7c-.74,3.49,1.37,7.34,3.57,9.88s8,5.33,9.94,6.27c-.58,1.68-1.17,3.36-1.81,5-.46,1.09-.84,2.16-1.36,3.22l-1.49,3.16c-1,2-2,4-3.09,5.9-.71,1.33-1.42,2.58-2.12,3.84.49-1.68,1.38-5,1.42-5.28a23.2,23.2,0,0,0-1.65-11.58,7.33,7.33,0,0,0,.09-1.32,6,6,0,0,0-6.6-6c-5,.67-9.16,8.77-10,13.2-.05.27-.24,3.16-.34,5-.11-1.08-.2-2.14-.32-3.25-.24-2.2-.54-4.4-.85-6.76-.19-1.13-.38-2.28-.58-3.44s-.49-2.34-.73-3.53c-.62-2.74-1.39-5.48-2.22-8.23,1.93-.21,8.77-1.05,11.7-2.75s6.14-4.66,6.57-8.2A6,6,0,0,0,63.55,350c-5-.1-10.37,7.28-11.84,11.54-.09.27-.79,3.44-1.15,5.2-.51-1.65-1-3.3-1.59-4.95-1.65-4.76-3.47-9.53-5.26-14.3-.55-1.46-1.08-2.92-1.62-4.38.69-.07,8.84-.9,12.12-2.8,2.91-1.69,6.14-4.66,6.57-8.2a6,6,0,0,0-5.63-6.88c-5-.1-10.37,7.28-11.84,11.54-.11.32-1.12,4.89-1.32,6.07-1.18-3.22-2.33-6.44-3.33-9.65A105.76,105.76,0,0,1,35.39,320c.32,0,8.84-.85,12.19-2.8,2.91-1.69,6.14-4.66,6.57-8.2a6,6,0,0,0-5.62-6.88c-5.05-.1-10.38,7.28-11.85,11.54-.09.28-.86,3.77-1.19,5.43H35.2a77.76,77.76,0,0,1-.84-13.69c0-2.52.22-4.93.45-7.27,1.6,0,8.92,0,12.13-1.45s6.62-4,7.43-7.42a6,6,0,0,0-4.83-7.46c-5-.65-11.12,6.09-13,10.17-.11.22-.92,2.59-1.49,4.32.12-1.05.22-2.14.36-3.15.49-3.78,1.17-7.22,1.8-10.25.37-1.73.74-3.28,1.11-4.73,1.57-.81,7.88-4.16,10-6.85s4-6.56,3.17-10a6,6,0,0,0-7.72-4.4c-4.74,1.73-7.06,10.54-6.89,15,0,.39.95,6.45,1,6.41l.1-.05c-.38,1.38-.77,2.88-1.16,4.51-.69,3-1.45,6.46-2,10.25a108.39,108.39,0,0,0-1.28,12.31,78.58,78.58,0,0,0,.54,13.84l0,.16c-.63-1.34-2.51-5-2.69-5.29-2.49-3.75-9.51-9.54-14.37-8.17a6,6,0,0,0-3.7,8.08C14.65,317.25,18.53,319.3,21.78,320.21Z" style="fill:#263238;opacity:0.30000000000000004"></path></g><g id="freepik--Clipboard--inject-34"><rect x="228.47" y="77.57" width="195.86" height="300.05" rx="9.86" style="fill:#263238"></rect><rect x="236.64" y="87.04" width="179.53" height="281.12" style="fill:#fff"></rect><path d="M416.16,368.66H236.64a.5.5,0,0,1-.5-.5V87a.5.5,0,0,1,.5-.5H416.16a.5.5,0,0,1,.5.5V368.16A.5.5,0,0,1,416.16,368.66Zm-179-1H415.66V87.54H237.14Z" style="fill:#263238"></path><path d="M342.85,72.72h-3.44a5.42,5.42,0,0,1-5.34-5.59A7.4,7.4,0,0,0,334,65.9a7.68,7.68,0,0,0-15.27,1.17v.07a5.41,5.41,0,0,1-5.34,5.58h-3.44A7.94,7.94,0,0,0,302,80.66V91.31h48.8V80.66A7.94,7.94,0,0,0,342.85,72.72Z" style="fill:#8c8c8c"></path><path d="M350.8,91.81H302a.5.5,0,0,1-.5-.5V80.66a8.45,8.45,0,0,1,8.44-8.44h3.44a4.72,4.72,0,0,0,3.38-1.41,5.14,5.14,0,0,0,1.46-3.67,8.18,8.18,0,0,1,16.26-1.31,7.28,7.28,0,0,1,.09,1.31,5.2,5.2,0,0,0,1.48,3.68,4.69,4.69,0,0,0,3.36,1.4h3.44a8.45,8.45,0,0,1,8.45,8.44V91.31A.5.5,0,0,1,350.8,91.81Zm-48.3-1h47.8V80.66a7.45,7.45,0,0,0-7.45-7.44h-3.44a5.7,5.7,0,0,1-4.07-1.7,6.18,6.18,0,0,1-1.77-4.39,6.36,6.36,0,0,0-.08-1.15,7.18,7.18,0,0,0-14.27,1.09,6.12,6.12,0,0,1-1.75,4.44,5.72,5.72,0,0,1-4.09,1.71h-3.44a7.45,7.45,0,0,0-7.44,7.44Z" style="fill:#263238"></path><rect x="252.74" y="177.17" width="149.49" height="1" style="fill:#263238"></rect><rect x="252.74" y="197.72" width="149.49" height="1" style="fill:#263238"></rect><rect x="252.74" y="218.28" width="149.49" height="1" style="fill:#263238"></rect><rect x="252.74" y="238.83" width="149.49" height="1" style="fill:#263238"></rect><rect x="252.74" y="259.39" width="149.49" height="1" style="fill:#263238"></rect><rect x="252.74" y="279.94" width="149.49" height="1" style="fill:#263238"></rect><rect x="252.74" y="300.5" width="149.49" height="1" style="fill:#263238"></rect><path d="M317,129.21a4.52,4.52,0,0,1-2.46-.59,3.11,3.11,0,0,1-1.27-1.64,7.38,7.38,0,0,1-.36-2.42v-5a7.72,7.72,0,0,1,.36-2.5,3,3,0,0,1,1.27-1.61,5.7,5.7,0,0,1,4.82-.07,2.7,2.7,0,0,1,1.21,1.41,5.8,5.8,0,0,1,.36,2.13v1.17h-2.77v-1.31a8.76,8.76,0,0,0-.05-.91,1.21,1.21,0,0,0-.29-.69,1,1,0,0,0-.8-.27,1.11,1.11,0,0,0-.83.28,1.38,1.38,0,0,0-.33.72,7.12,7.12,0,0,0-.07,1v6.36a5.06,5.06,0,0,0,.1,1,1,1,0,0,0,1.13.91,1,1,0,0,0,.79-.27,1.39,1.39,0,0,0,.29-.72,7.12,7.12,0,0,0,.06-1v-1.36h2.77V125a6.33,6.33,0,0,1-.35,2.17,2.94,2.94,0,0,1-1.19,1.48A4.45,4.45,0,0,1,317,129.21Z" style="fill:#263238"></path><path d="M321.94,129l2.71-14h3.17l2.69,14h-2.64l-.5-3.08h-2.22l-.53,3.08Zm3.47-4.83h1.68l-.85-5.65Z" style="fill:#263238"></path><path d="M331.82,129V115h3.63a8.18,8.18,0,0,1,2.43.32,2.84,2.84,0,0,1,1.56,1.13,4,4,0,0,1,.54,2.25,7.08,7.08,0,0,1-.15,1.53,2.87,2.87,0,0,1-.51,1.15,2.6,2.6,0,0,1-1.05.79l1.94,6.83h-2.92l-1.61-6.35h-1V129Zm2.86-8h.83a2.17,2.17,0,0,0,1.08-.22,1.23,1.23,0,0,0,.57-.69,3.34,3.34,0,0,0,.16-1.13,2.65,2.65,0,0,0-.35-1.48,1.52,1.52,0,0,0-1.33-.51h-1Z" style="fill:#263238"></path><path d="M262,149.75v-14h2.85v12.07h3.28v1.93Z" style="fill:#263238"></path><path d="M273.21,149.94a4.64,4.64,0,0,1-2.44-.55,3.09,3.09,0,0,1-1.28-1.58,7,7,0,0,1-.39-2.46v-5.22a6.9,6.9,0,0,1,.39-2.46,2.94,2.94,0,0,1,1.28-1.55,4.74,4.74,0,0,1,2.44-.54,4.67,4.67,0,0,1,2.46.55,3,3,0,0,1,1.3,1.55,6.84,6.84,0,0,1,.39,2.45v5.22a7,7,0,0,1-.39,2.46,3.07,3.07,0,0,1-1.3,1.58A4.67,4.67,0,0,1,273.21,149.94Zm0-2.05a1.11,1.11,0,0,0,.81-.26,1.2,1.2,0,0,0,.35-.67,4.34,4.34,0,0,0,.08-.91v-6.61a4.19,4.19,0,0,0-.08-.9,1.24,1.24,0,0,0-.35-.67,1.11,1.11,0,0,0-.81-.25,1.09,1.09,0,0,0-.78.25,1.23,1.23,0,0,0-.34.67,4.16,4.16,0,0,0-.09.9v6.61a5.14,5.14,0,0,0,.08.91,1.13,1.13,0,0,0,.34.67A1.07,1.07,0,0,0,273.21,147.89Z" style="fill:#263238"></path><path d="M278.41,149.75l2.72-14h3.16l2.69,14h-2.64l-.5-3.07h-2.21l-.54,3.07Zm3.48-4.82h1.67l-.85-5.65Z" style="fill:#263238"></path><path d="M288.3,149.75v-14h2l3.11,7.3v-7.3h2.35v14h-1.9L290.73,142v7.74Z" style="fill:#263238"></path><path d="M301.5,149.75l2.71-14h3.16l2.7,14h-2.64l-.51-3.07h-2.21l-.53,3.07Zm3.47-4.82h1.68l-.85-5.65Z" style="fill:#263238"></path><path d="M311.38,149.75v-14h4.44a4,4,0,0,1,2.06.48,2.89,2.89,0,0,1,1.18,1.37,5.48,5.48,0,0,1,.39,2.18,4.55,4.55,0,0,1-.51,2.35,2.75,2.75,0,0,1-1.39,1.2,5.31,5.31,0,0,1-2,.36h-1.3v6.06Zm2.85-8.07h1a1.79,1.79,0,0,0,.95-.2,1,1,0,0,0,.46-.63,4.19,4.19,0,0,0,.12-1.1,5.27,5.27,0,0,0-.09-1.07,1.12,1.12,0,0,0-.42-.68,1.79,1.79,0,0,0-1-.24h-1Z" style="fill:#263238"></path><path d="M320.82,149.75v-14h4.44a3.91,3.91,0,0,1,2.05.48,2.91,2.91,0,0,1,1.19,1.37,5.48,5.48,0,0,1,.39,2.18,4.55,4.55,0,0,1-.51,2.35,2.79,2.79,0,0,1-1.39,1.2,5.37,5.37,0,0,1-2,.36h-1.29v6.06Zm2.85-8.07h1a1.83,1.83,0,0,0,1-.2,1,1,0,0,0,.46-.63,4.19,4.19,0,0,0,.12-1.1,4.57,4.57,0,0,0-.1-1.07,1.08,1.08,0,0,0-.42-.68,1.77,1.77,0,0,0-1-.24h-1Z" style="fill:#263238"></path><path d="M330.25,149.75v-14h2.85v12.07h3.29v1.93Z" style="fill:#263238"></path><path d="M337.67,149.75v-14h2.83v14Z" style="fill:#263238"></path><path d="M346.53,149.94a4.39,4.39,0,0,1-2.46-.59,3,3,0,0,1-1.27-1.63,7.43,7.43,0,0,1-.37-2.43v-5a7.7,7.7,0,0,1,.37-2.5,3,3,0,0,1,1.27-1.62,4.57,4.57,0,0,1,2.46-.57,4.73,4.73,0,0,1,2.36.5,2.8,2.8,0,0,1,1.21,1.42,6,6,0,0,1,.35,2.13v1.17h-2.76v-1.31a8.46,8.46,0,0,0-.05-.91,1.28,1.28,0,0,0-.29-.69,1,1,0,0,0-.8-.27,1.07,1.07,0,0,0-.83.28,1.27,1.27,0,0,0-.33.71,5.94,5.94,0,0,0-.07,1V146a4.55,4.55,0,0,0,.1,1,1.15,1.15,0,0,0,.36.67,1.11,1.11,0,0,0,.77.24,1,1,0,0,0,.78-.27,1.32,1.32,0,0,0,.3-.72,7.23,7.23,0,0,0,.06-1v-1.36h2.76v1.15a6.3,6.3,0,0,1-.34,2.17,2.93,2.93,0,0,1-1.2,1.49A4.41,4.41,0,0,1,346.53,149.94Z" style="fill:#263238"></path><path d="M351.51,149.75l2.71-14h3.16l2.7,14h-2.65l-.5-3.07h-2.21l-.54,3.07Zm3.47-4.82h1.68l-.85-5.65Z" style="fill:#263238"></path><path d="M362.1,149.75V137.88h-2.16v-2.13h7.15v2.13H365v11.87Z" style="fill:#263238"></path><path d="M368.39,149.75v-14h2.83v14Z" style="fill:#263238"></path><path d="M377.27,149.94a4.64,4.64,0,0,1-2.44-.55,3.14,3.14,0,0,1-1.28-1.58,7,7,0,0,1-.39-2.46v-5.22a6.9,6.9,0,0,1,.39-2.46,3,3,0,0,1,1.28-1.55,4.74,4.74,0,0,1,2.44-.54,4.67,4.67,0,0,1,2.46.55,3,3,0,0,1,1.3,1.55,6.84,6.84,0,0,1,.39,2.45v5.22a7,7,0,0,1-.39,2.46,3.07,3.07,0,0,1-1.3,1.58A4.67,4.67,0,0,1,377.27,149.94Zm0-2.05a1.11,1.11,0,0,0,.81-.26,1.2,1.2,0,0,0,.35-.67,4.32,4.32,0,0,0,.09-.91v-6.61a4.16,4.16,0,0,0-.09-.9,1.24,1.24,0,0,0-.35-.67,1.11,1.11,0,0,0-.81-.25,1.08,1.08,0,0,0-.78.25,1.23,1.23,0,0,0-.34.67,4.16,4.16,0,0,0-.09.9v6.61a5.14,5.14,0,0,0,.08.91,1.13,1.13,0,0,0,.34.67A1.07,1.07,0,0,0,377.27,147.89Z" style="fill:#263238"></path><path d="M383.32,149.75v-14h2l3.11,7.3v-7.3h2.35v14h-1.9L385.76,142v7.74Z" style="fill:#263238"></path></g><g id="freepik--Stamp--inject-34"><path d="M316.21,237.55l-5.37-16.37,3.34-1.86,11.08,13.19-2.79,1.56-2.34-3-2.33,1.31L319,236Zm.83-7.13,1.77-1L314.6,224Z" style="fill:#FBC02D"></path><path d="M326.65,231.74,318.41,217l4.69-2.61a4.7,4.7,0,0,1,2.46-.71,3.44,3.44,0,0,1,2.05.75,6.54,6.54,0,0,1,1.69,2.07,5.51,5.51,0,0,1,.85,2.78,3.45,3.45,0,0,1-.76,2.09,6.5,6.5,0,0,1-1.93,1.56l-1.37.77,3.57,6.4Zm-1.74-10.2L326,221a2.29,2.29,0,0,0,.9-.77,1.26,1.26,0,0,0,.11-.94,5.17,5.17,0,0,0-.52-1.24,6.13,6.13,0,0,0-.73-1.07,1.33,1.33,0,0,0-.85-.47,2.16,2.16,0,0,0-1.24.36l-1,.58Z" style="fill:#FBC02D"></path><path d="M336.61,226.19l-8.23-14.78,4.69-2.62a4.72,4.72,0,0,1,2.45-.7,3.5,3.5,0,0,1,2.06.75,6.67,6.67,0,0,1,1.69,2.07,5.48,5.48,0,0,1,.84,2.78,3.45,3.45,0,0,1-.76,2.09,6.53,6.53,0,0,1-1.93,1.56l-1.37.76,3.57,6.41ZM334.88,216l1.05-.59a2.3,2.3,0,0,0,.9-.78,1.18,1.18,0,0,0,.11-.93,5,5,0,0,0-.52-1.24,6.68,6.68,0,0,0-.73-1.08,1.36,1.36,0,0,0-.85-.46,2.13,2.13,0,0,0-1.23.36l-1,.58Z" style="fill:#FBC02D"></path><path d="M346.58,220.63l-8.24-14.78,3.83-2.13a9.73,9.73,0,0,1,2.75-1.09,3.42,3.42,0,0,1,2.31.28,4.9,4.9,0,0,1,1.9,2.05,8.86,8.86,0,0,1,.74,1.7,3.69,3.69,0,0,1,.14,1.53,3.1,3.1,0,0,1-.65,1.44l6.06,6.07-3.08,1.72-5.43-5.75-1.06.59,3.74,6.7Zm-1.72-10.16.87-.49a2.67,2.67,0,0,0,1-.87,1.49,1.49,0,0,0,.19-1.06,4.19,4.19,0,0,0-.49-1.29,3.17,3.17,0,0,0-1.24-1.35,1.83,1.83,0,0,0-1.7.24l-1,.57Z" style="fill:#FBC02D"></path><path d="M361.34,212.67a5.59,5.59,0,0,1-2.9.85,3.75,3.75,0,0,1-2.29-.91,8.3,8.3,0,0,1-1.86-2.37l-3.07-5.51a8.25,8.25,0,0,1-1-2.82,3.61,3.61,0,0,1,.44-2.4,5.72,5.72,0,0,1,2.26-2,5.85,5.85,0,0,1,2.92-.88,3.66,3.66,0,0,1,2.28.88,8.26,8.26,0,0,1,1.85,2.36l3.07,5.51a8.29,8.29,0,0,1,1,2.82,3.68,3.68,0,0,1-.44,2.44A5.73,5.73,0,0,1,361.34,212.67Zm-1.21-2.17a1.42,1.42,0,0,0,.71-.74,1.61,1.61,0,0,0,0-.92,5.91,5.91,0,0,0-.45-1l-3.89-7a5.16,5.16,0,0,0-.62-.89,1.47,1.47,0,0,0-.76-.5,1.32,1.32,0,0,0-1,.21,1.3,1.3,0,0,0-.68.72,1.58,1.58,0,0,0,0,.91,5.36,5.36,0,0,0,.44,1l3.89,7a6.3,6.3,0,0,0,.62.91,1.41,1.41,0,0,0,.75.51A1.32,1.32,0,0,0,360.13,210.5Z" style="fill:#FBC02D"></path><path d="M369.6,207.8l-11-13.21,2.6-1.46,7.45,9.25-4.05-11.14,2.72-1.51,5.42,16.34Z" style="fill:#FBC02D"></path><path d="M377,203.66l-8.24-14.78,6.44-3.59,1.16,2.08L373,189.29l2.19,3.92,2.64-1.48,1.17,2.1-2.64,1.48,2.58,4.63,3.47-1.93,1.13,2Z" style="fill:#FBC02D"></path><path d="M385,199.21l-8.24-14.78,3.61-2a8.26,8.26,0,0,1,3.2-1.15,3.26,3.26,0,0,1,2.33.68,7.87,7.87,0,0,1,1.91,2.4l3,5.38a8.09,8.09,0,0,1,1.07,2.94,3.36,3.36,0,0,1-.6,2.38,7.58,7.58,0,0,1-2.6,2.1Zm1.84-3.78.64-.35a2.34,2.34,0,0,0,1.05-.93,1.38,1.38,0,0,0,0-1,9,9,0,0,0-.63-1.33l-3.4-6.1a5.59,5.59,0,0,0-.8-1.16,1.2,1.2,0,0,0-.86-.42,2.54,2.54,0,0,0-1.28.42l-.62.35Z" style="fill:#FBC02D"></path><path d="M395.57,173.09a2.17,2.17,0,0,1-.91-.42,2.94,2.94,0,0,1-.72-2.48,9.42,9.42,0,0,0-12-2.44L361.77,179a10.68,10.68,0,0,1-1.29,1.23,42.35,42.35,0,0,1-12.89,7.07,2.08,2.08,0,0,1-1,.17l-46.68,26a9.43,9.43,0,0,0-3.64,12.8l3.42,6.13c2.05.5,2.44,2.77,3.18,4.47a12.42,12.42,0,0,1,.87,1.8,1.77,1.77,0,0,1,0,.94l4,7.26c.17.29.35.58.54.85,1.16-.41,2.9,1.8,3.73,2.5a2.77,2.77,0,0,1,.74.9,9.34,9.34,0,0,0,7.79-.62l73.63-41a2.53,2.53,0,0,1,.89-.89,25.32,25.32,0,0,1,4.93-2.86,17.24,17.24,0,0,1,2.11-.67l.48-.27a9.42,9.42,0,0,0,3.64-12.8L395.7,173.1Zm-75.22,33.07a28.43,28.43,0,0,1,4.28-1.74c-1.22,1-3.09,1.63-4.5,2.45a11.17,11.17,0,0,1-3.94,1.73C317.38,208.43,319.21,206.72,320.35,206.16Zm41.53,20.44a.59.59,0,0,1-.38.1l-.08,0a.46.46,0,0,1-.18-.57,1.22,1.22,0,0,1,.53-.5c.77-.43,2-1.42,2.72-.47A12.72,12.72,0,0,1,361.88,226.6Zm40.29-32.36a4.78,4.78,0,0,1-1.85,6.49l-63.85,35.58-.53.52c-.81.77-1.61,1.55-2.48,2.25a20.26,20.26,0,0,1-9.43,4.25h-.16l-5.59,3.11a4.77,4.77,0,0,1-6.48-1.84L300.32,224a4.78,4.78,0,0,1,1.84-6.49l82-45.72a4.78,4.78,0,0,1,6.49,1.85Z" style="fill:#FBC02D"></path></g><g id="freepik--Car--inject-34"><path d="M163.81,398.5h51.25s-2.16-25.34-16.52-36.11-32-7.54-36.27-.36-5,22.62-4,24.42S163.81,398.5,163.81,398.5Z" style="fill:#263238"></path><path d="M215.06,399H163.81a.51.51,0,0,1-.46-.3c0-.1-4.41-10.25-5.46-12-1.3-2.17-.37-17.73,4-24.93,1.81-3,5.76-5.32,10.83-6.31,8.67-1.7,18.45.74,26.17,6.53,14.37,10.78,16.69,36.21,16.71,36.47a.45.45,0,0,1-.13.38A.48.48,0,0,1,215.06,399Zm-50.92-1H214.5c-.42-3.72-3.4-25.57-16.26-35.21-7.49-5.62-17-8-25.37-6.35-4.8.94-8.5,3.07-10.17,5.85-4.34,7.22-4.81,22.47-3.95,23.9C159.74,387.84,163.39,396.26,164.14,398Z" style="fill:#263238"></path><path d="M319.55,407.27h40.22L384.18,394s-6.46-28-22.62-36.27S332,352.27,324.7,366.3,319.55,407.27,319.55,407.27Z" style="fill:#263238"></path><path d="M359.77,407.77H319.55a.5.5,0,0,1-.5-.46c0-.27-2.08-27.23,5.21-41.24s21-17.25,37.53-8.8c16.18,8.27,22.61,35.45,22.88,36.61a.5.5,0,0,1-.25.55L360,407.71A.53.53,0,0,1,359.77,407.77Zm-39.76-1h39.63l24-13c-.84-3.31-7.51-28-22.28-35.56-16.21-8.29-29.06-5.32-36.19,8.36C318.51,379.29,319.78,403.16,320,406.77Z" style="fill:#263238"></path><path d="M284.12,381.15h-9.23v0c-9.65.5-17.36,10.58-17.36,22.95s7.71,22.45,17.36,22.95l4,0h5.28c9,0,16.23-10.28,16.23-23S293.08,381.15,284.12,381.15Z" style="fill:#263238"></path><path d="M284.12,427.59l-9.24,0c-10-.52-17.86-10.82-17.86-23.45s7.77-22.85,17.71-23.44a.45.45,0,0,1,.16,0h9.23c9.23,0,16.73,10.53,16.73,23.47S293.35,427.59,284.12,427.59ZM275,381.65l-.11,0C265.44,382.16,258,392,258,404.12s7.42,22,16.89,22.45l9.21,0c8.67,0,15.73-10.08,15.73-22.47s-7.06-22.47-15.73-22.47Z" style="fill:#263238"></path><path d="M443.36,369.9H431.87l0,0c-12,.62-21.6,13.17-21.6,28.57s9.59,27.95,21.6,28.57l0,0h11.49c11.15,0,20.19-12.8,20.19-28.59S454.51,369.9,443.36,369.9Z" style="fill:#263238"></path><path d="M443.36,427.59H431.87a.58.58,0,0,1-.19,0c-12.31-.74-21.93-13.46-21.93-29.06s9.63-28.33,21.94-29.06a.58.58,0,0,1,.18,0h11.49c11.41,0,20.69,13.06,20.69,29.1S454.77,427.59,443.36,427.59Zm-11.34-1h11.34c10.86,0,19.69-12.6,19.69-28.09s-8.83-28.1-19.69-28.1H432a.28.28,0,0,1-.13,0c-11.85.61-21.13,12.94-21.13,28.07S420,426,431.88,426.57Z" style="fill:#263238"></path><path d="M362.9,369.9H348.33v5.53c-5,5.21-8.27,13.6-8.27,23.07s3.26,17.86,8.27,23.07v5.52H362.9c11.16,0,20.2-12.8,20.2-28.59S374.06,369.9,362.9,369.9Z" style="fill:#263238"></path><path d="M362.9,427.59H348.33a.5.5,0,0,1-.5-.5v-5.32c-5.18-5.48-8.27-14.16-8.27-23.27s3.09-17.79,8.27-23.27V369.9a.5.5,0,0,1,.5-.5H362.9c11.42,0,20.7,13.06,20.7,29.1S374.32,427.59,362.9,427.59Zm-14.07-1H362.9c10.86,0,19.7-12.6,19.7-28.09s-8.84-28.1-19.7-28.1H348.83v5a.5.5,0,0,1-.14.35c-5.09,5.28-8.13,13.78-8.13,22.72s3,17.44,8.13,22.72a.5.5,0,0,1,.14.35Z" style="fill:#263238"></path><path d="M194.21,369.9H182.92v5.53c-4.74,5.21-7.82,13.6-7.82,23.07s3.08,17.86,7.82,23.07v5.52h11.29c10.56,0,19.11-12.8,19.11-28.59S204.77,369.9,194.21,369.9Z" style="fill:#263238"></path><path d="M194.21,427.59H182.92a.5.5,0,0,1-.5-.5v-5.33c-4.9-5.47-7.82-14.15-7.82-23.26s2.92-17.79,7.82-23.26V369.9a.5.5,0,0,1,.5-.5h11.29c10.81,0,19.61,13.06,19.61,29.1S205,427.59,194.21,427.59Zm-10.79-1h10.79c10.26,0,18.61-12.6,18.61-28.09s-8.35-28.1-18.61-28.1H183.42v5a.51.51,0,0,1-.13.34c-4.82,5.28-7.69,13.78-7.69,22.73s2.87,17.45,7.69,22.73a.51.51,0,0,1,.13.34Z" style="fill:#263238"></path><path d="M476.33,393.38,475.5,384l1.11-4.71.27-6.1L471.34,364s-.28-11.92-.83-13.31-8.32-7.48-16.08-10-55.17-8.31-55.17-8.31S372.65,311,363.5,306.6s-12.2-5-21.9-7.76-29.67-2.77-29.67-2.77l-28.55-1.67s-34.93-1.38-54.06.56-28.83,5-29.94,5.54l-3.33,1.67s-12.2,2.77-13.86,4.43-3.33,4.16.56,8.32l-21.63,23.56s-3.88.28-3.6,2.78.27,21.34.27,21.34l-2.21,3s-1.67,14.7-.84,17.19a98.51,98.51,0,0,0,5,10.81,13.33,13.33,0,0,0,3.6,3.61l.42.22c-1.23-4-3.63-12.09-3.63-14.68,0-3.47,1.74-14.33,9.55-17.8s16.94-3.26,24.32,2.61,10,17.8,12.37,25.18,5.21,12.38,8.47,14.55l2,1.32c1.74,0,2.78,0,2.78,0l107.84,2.5v-4.71s-4.44-1.67-5.27-2.5-3.88-11.92-1.11-22.18,11.37-20.51,22.46-21.34,23.84,5.82,28.27,16.63,6.1,27.17,6.66,28.28,1.94,1.94,5,2.77l3.05.83,5.54,2.5L465,407.51s11.09-4.71,12.48-7.2S476.33,393.38,476.33,393.38Z" style="fill:#fff"></path><path d="M392.05,411.9a.46.46,0,0,1-.2,0l-5.55-2.49-3-.81c-3.12-.85-4.66-1.73-5.31-3a25.67,25.67,0,0,1-.78-4c-.94-5.76-2.68-16.47-5.89-24.29-4.11-10-16.31-17.19-27.78-16.33-10.94.83-19.36,11.18-22,21s.2,20.8,1,21.7a25.34,25.34,0,0,0,5.08,2.38.5.5,0,0,1,.33.47v4.71a.55.55,0,0,1-.15.36.54.54,0,0,1-.36.14l-107.85-2.5s-1,0-2.75,0a.5.5,0,0,1-.28-.08l-2-1.33c-3.27-2.18-6.19-7.16-8.66-14.8-.36-1.11-.72-2.31-1.1-3.57-2.2-7.35-5-16.49-11.11-21.38-6.73-5.35-15.41-6.28-23.8-2.54-7.56,3.36-9.26,13.91-9.26,17.34,0,1.81,1.32,7.1,3.61,14.54a.49.49,0,0,1-.16.53.5.5,0,0,1-.55.06l-.43-.23a14,14,0,0,1-3.8-3.8,99,99,0,0,1-5-10.9c-.84-2.53.64-15.89.81-17.4a.5.5,0,0,1,.09-.24l2.12-2.92c0-1.85,0-18.81-.27-21.13a2.32,2.32,0,0,1,.54-1.83,5.41,5.41,0,0,1,3.32-1.47l21.19-23.09c-3.73-4.23-1.93-7-.23-8.67s12.53-4.21,14-4.56l3.27-1.63c1-.53,10.51-3.61,30.12-5.6,18.94-1.92,53.78-.57,54.13-.55L312,295.57c.14,0,20.12,0,29.77,2.79l3.7,1.05a88.28,88.28,0,0,1,18.29,6.74c8.89,4.31,33.61,24.05,35.74,25.76,3.38.41,47.54,5.88,55.12,8.32,7.85,2.52,15.75,8.65,16.39,10.27.56,1.38.83,11.62.87,13.34l5.47,9a.45.45,0,0,1,.07.28l-.27,6.1L476,384l.82,9.24c.38.7,2.46,4.8,1.06,7.32s-11.57,6.93-12.72,7.42a.33.33,0,0,1-.17,0l-72.91,3.88Zm-46.61-52.09c11.28,0,22.81,7.19,26.84,17,3.25,7.92,5,18.71,6,24.51a36.63,36.63,0,0,0,.69,3.73c.5,1,1.9,1.76,4.67,2.52l3.05.83,5.51,2.47,72.7-3.87c3.1-1.32,11.09-5,12.15-7,1.24-2.22-1.08-6.4-1.11-6.44a.66.66,0,0,1-.06-.2L475,384a.92.92,0,0,1,0-.16l1.11-4.71.26-5.85-5.47-9a.55.55,0,0,1-.07-.25c-.11-4.57-.42-12.18-.8-13.13-.44-1.11-7.92-7.17-15.76-9.69-7.63-2.45-54.61-8.24-55.08-8.3a.47.47,0,0,1-.25-.11c-.27-.21-26.68-21.36-35.67-25.72a86.29,86.29,0,0,0-18.12-6.68l-3.7-1.05c-9.52-2.72-29.33-2.75-29.53-2.75l-28.58-1.67c-.34,0-35.11-1.36-54,.56-19.21,2-28.8,5-29.77,5.49l-3.32,1.66a.28.28,0,0,1-.12,0c-4.84,1.11-12.47,3.16-13.62,4.31-1.75,1.76-2.9,3.9.57,7.62a.5.5,0,0,1,0,.68l-21.62,23.56a.49.49,0,0,1-.33.16,4.74,4.74,0,0,0-2.84,1.14,1.42,1.42,0,0,0-.31,1.08c.28,2.5.28,20.63.28,21.4a.53.53,0,0,1-.09.3l-2.14,2.94c-.47,4.16-1.49,14.9-.84,16.84a94.86,94.86,0,0,0,4.95,10.72,11,11,0,0,0,2.71,2.89c-1.37-4.51-3.25-11.13-3.25-13.49,0-3.6,1.81-14.68,9.85-18.26,8.75-3.88,17.8-2.91,24.83,2.67,6.41,5.09,9.2,14.4,11.45,21.88.38,1.26.74,2.45,1.09,3.55,2.4,7.42,5.18,12.23,8.27,14.28.66.45,1.29.86,1.87,1.24,1.64,0,2.61,0,2.61,0L327,410.61v-3.86c-1.1-.42-4.35-1.71-5.12-2.49-1.12-1.12-4-12.52-1.24-22.66s11.49-20.86,22.9-21.71C344.14,359.84,344.79,359.81,345.44,359.81ZM465,407.51h0Z" style="fill:#263238"></path><path d="M399.26,332.39S372.65,311,363.5,306.6s-12.2-5-21.9-7.76-29.67-2.77-29.67-2.77l-28.55-1.67s-34.93-1.38-54.06.56-28.83,5-29.94,5.54l-3.33,1.67s-12.2,2.77-13.86,4.43-3.33,4.16.56,8.32h13.86l18.85,16.36,100.63,3.6.28-3.05,79.84-.28A5.35,5.35,0,0,1,399.26,332.39Z" style="fill:#263238"></path><path d="M316.09,335.38h0l-100.63-3.6a.53.53,0,0,1-.31-.13l-18.71-16.23H182.75a.51.51,0,0,1-.37-.16c-4.13-4.43-2.29-7.26-.54-9s12.53-4.21,14-4.56l3.27-1.63c1-.53,10.51-3.61,30.12-5.6,18.94-1.92,53.78-.57,54.13-.55L312,295.57h0c.54,0,20.2.06,29.76,2.79l3.7,1.05a88.28,88.28,0,0,1,18.29,6.74c9.09,4.41,34.77,25,35.85,25.85a.49.49,0,0,1,.09.69.51.51,0,0,1-.7.1h0a4.92,4.92,0,0,0-2.75-.74l-79.38.28-.24,2.59A.5.5,0,0,1,316.09,335.38Zm-100.44-4.6,100,3.58.23-2.57a.5.5,0,0,1,.5-.46l79.84-.28a5.74,5.74,0,0,1,.6,0c-6.5-5.14-26.05-20.4-33.53-24a86.29,86.29,0,0,0-18.12-6.68l-3.7-1.05c-9.52-2.72-29.33-2.75-29.53-2.75l-28.58-1.67c-.34,0-35.11-1.36-54,.56-19.21,2-28.8,5-29.77,5.49l-3.32,1.66a.28.28,0,0,1-.12,0c-4.84,1.11-12.47,3.16-13.62,4.31-1.73,1.73-2.87,3.84.42,7.46h13.65a.47.47,0,0,1,.32.12Z" style="fill:#263238"></path><path d="M399.26,332.39S372.65,311,363.5,306.6c-3.07-1.49-5.45-2.53-7.63-3.38-4.49-.84-9-1.33-9-1.33l-58.21-4.44a147.24,147.24,0,0,1,17.46,14.7c7.17,7.16,15.21,17.35,17.46,19.66l72.64-.26A5.35,5.35,0,0,1,399.26,332.39Z" style="fill:#8c8c8c"></path><path d="M399.26,332.88a.55.55,0,0,1-.3-.09h0a4.92,4.92,0,0,0-2.75-.74l-72.64.25h0a.48.48,0,0,1-.36-.15c-.78-.8-2.25-2.53-4.11-4.73-3.65-4.31-8.65-10.22-13.34-14.92a148.37,148.37,0,0,0-17.4-14.64.48.48,0,0,1-.18-.57.48.48,0,0,1,.5-.33l58.22,4.43c.06,0,4.61.5,9.06,1.34,2.33.89,4.76,2,7.76,3.42,9.09,4.41,34.77,25,35.85,25.85a.49.49,0,0,1-.31.88ZM290.38,298.09a149.3,149.3,0,0,1,16.09,13.7c4.72,4.73,9.74,10.66,13.4,15,1.73,2.05,3.12,3.69,3.91,4.52l72.43-.25a5.74,5.74,0,0,1,.6,0c-6.5-5.14-26.05-20.4-33.53-24-3-1.43-5.38-2.51-7.6-3.36-4.32-.81-8.82-1.3-8.87-1.3Z" style="fill:#263238"></path><path d="M217.64,331.35l26.76,1c.61-4.6,1.84-13.15,3.22-17.67a111.38,111.38,0,0,1,5.26-13.3L223.77,303S219.13,319.89,217.64,331.35Z" style="fill:#8c8c8c"></path><path d="M244.4,332.81h0l-26.75-1a.47.47,0,0,1-.37-.17.5.5,0,0,1-.11-.39c1.47-11.37,6.1-28.25,6.14-28.42a.5.5,0,0,1,.46-.37l29.11-1.66a.46.46,0,0,1,.44.22.48.48,0,0,1,0,.49,111,111,0,0,0-5.23,13.24c-1.36,4.46-2.59,12.94-3.2,17.59A.5.5,0,0,1,244.4,332.81Zm-26.19-1.94,25.76.93c.63-4.76,1.83-12.91,3.17-17.3a108,108,0,0,1,4.94-12.62l-27.92,1.6C223.51,305.9,219.62,320.5,218.21,330.87Z" style="fill:#263238"></path><path d="M215.46,331.28S219.8,307.9,222,303.7c0,0-11.87.87-14.91,2.75-2.27,1.4-7.28,6.6-9.68,9.14Z" style="fill:#8c8c8c"></path><path d="M215.46,331.78a.51.51,0,0,1-.33-.13L197.06,316a.5.5,0,0,1-.18-.35.55.55,0,0,1,.14-.37c2.67-2.84,7.5-7.82,9.78-9.23,3.1-1.92,14.64-2.78,15.13-2.82a.49.49,0,0,1,.45.22.52.52,0,0,1,0,.51C220.3,308,216,331.13,216,331.37a.51.51,0,0,1-.33.38A.45.45,0,0,1,215.46,331.78Zm-17.35-16.22,17,14.77c.77-4.07,4-20.95,6-26.06-2.74.23-11.4,1.09-13.85,2.6C205.18,308.2,200.41,313.12,198.11,315.56Z" style="fill:#263238"></path><path d="M313,332.94S297.79,313.26,289.2,308s-24.4-6.1-26.06-6.38l-1.66-.27s-7.61,11.67-5.84,31.38L314,334.81Z" style="fill:#8c8c8c"></path><path d="M314,335.31h0l-58.36-2.1a.5.5,0,0,1-.48-.45c-1.76-19.65,5.84-31.58,5.92-31.7a.52.52,0,0,1,.5-.22l1.66.28c.23,0,.72.08,1.41.15,4.29.42,17.33,1.69,24.83,6.29,8.58,5.26,23.35,24.27,24,25.07l.05.08.95,1.87a.5.5,0,0,1,0,.49A.49.49,0,0,1,314,335.31Zm-57.9-3.08,57.06,2-.54-1.07c-.75-1-15.44-19.74-23.68-24.79-7.31-4.48-20.18-5.74-24.4-6.15-.73-.07-1.25-.12-1.48-.16l-1.33-.23C260.64,303.74,254.66,314.84,256.1,332.23Z" style="fill:#263238"></path><path d="M297.22,339.36a6,6,0,0,1-1.19-.11c-1.41-.28-4.14-4.63-5.16-6.35-1.76.1-8.91.43-10.54-.65a3.14,3.14,0,0,1-1-2.83c.07-2.51,1.39-5.78,3.78-7.17,3.54-2.06,12.33-1.16,13.92-.89l.2,0c1.71.28,4.29.7,5.45,4.18,1,3.1-1.37,6.51-2.11,7.45.36.85,1.25,3.22.72,4.54S298.8,339.36,297.22,339.36Zm-6.08-7.48a.5.5,0,0,1,.43.25c1.68,2.84,3.94,6,4.66,6.14,1.35.27,3.75-.07,4.15-1.08s-.32-2.94-.82-4a.53.53,0,0,1,.07-.54s3.13-3.7,2.13-6.72-3-3.24-4.67-3.51l-.21,0c-2.05-.34-10.23-1-13.25.77-2,1.2-3.22,4.16-3.28,6.34a2.46,2.46,0,0,0,.53,2c1.11.73,6.86.68,10.23.47Z" style="fill:#263238"></path><path d="M300,332.94s3.33-3.88,2.22-7.21-3.6-3.6-5.27-3.88-10.25-1.11-13.58.83-4.44,8-2.77,9.15,10.53.56,10.53.56,3.61,6.09,5,6.37,4.16,0,4.71-1.38S300,332.94,300,332.94Z" style="fill:#263238"></path><path d="M297.22,339.36a6,6,0,0,1-1.19-.11c-1.41-.28-4.14-4.63-5.16-6.35-1.76.1-8.91.43-10.54-.65a3.14,3.14,0,0,1-1-2.83c.07-2.51,1.39-5.78,3.78-7.17,3.54-2.06,12.33-1.16,13.92-.89l.2,0c1.71.28,4.29.7,5.45,4.18,1,3.1-1.37,6.51-2.11,7.45.36.85,1.25,3.22.72,4.54S298.8,339.36,297.22,339.36Zm-6.08-7.48a.5.5,0,0,1,.43.25c1.68,2.84,3.94,6,4.66,6.14,1.35.27,3.75-.07,4.15-1.08s-.32-2.94-.82-4a.53.53,0,0,1,.07-.54s3.13-3.7,2.13-6.72-3-3.24-4.67-3.51l-.21,0c-2.05-.34-10.23-1-13.25.77-2,1.2-3.22,4.16-3.28,6.34a2.46,2.46,0,0,0,.53,2c1.11.73,6.86.68,10.23.47Z" style="fill:#263238"></path><path d="M429.78,376.36a.41.41,0,0,1-.16,0s-3.71-1.31-7.33-2.16-40.15-2.79-40.52-2.81a.5.5,0,0,1-.47-.52.51.51,0,0,1,.53-.48c1.51.08,37,2,40.68,2.84,3.36.79,6.76,1.95,7.35,2.15l44.85-1.51a.51.51,0,0,1,.51.48.5.5,0,0,1-.48.52l-44.94,1.52Z" style="fill:#263238"></path><path d="M312.76,385.91a.5.5,0,0,1-.5-.48,242.94,242.94,0,0,1,3.05-47.22.51.51,0,0,1,.58-.41.5.5,0,0,1,.4.58,243.56,243.56,0,0,0-3,47,.5.5,0,0,1-.48.52Z" style="fill:#263238"></path><path d="M419.69,354c-3.71,0-52.14-6.25-54.24-6.52l-50.77-3.26a.5.5,0,0,1-.47-.53.52.52,0,0,1,.54-.46l50.8,3.25c14.51,1.87,52.47,6.68,54.2,6.52,2.17-.22,4.58-.22,4.6-.22a.5.5,0,0,1,.5.5.5.5,0,0,1-.5.5s-2.39,0-4.51.21Z" style="fill:#263238"></path><path d="M438.25,372.46h-4.13c-3.49,0-9.5-5.14-10.21-6.57-.48-.95-.71-4.29-.71-10.21,0-2.24,1.2-4.62,3.49-4.84,1-.11,13.83-1.07,24.8-1.09h.34c9.3,0,17.22.86,17.3.87a.5.5,0,1,1-.11,1c-.08,0-8.14-.85-17.53-.86-10.93,0-23.68,1-24.7,1.08-1.9.19-2.59,2.4-2.59,3.85,0,7.73.42,9.4.6,9.76.62,1.24,6.3,6,9.32,6h1c25.56.07,30.83-.87,31.69-1.44,2.43-1.62,4-6.14,4-6.18a.5.5,0,0,1,.94.32c-.06.2-1.69,4.89-4.41,6.69C465.78,371.93,456.23,372.46,438.25,372.46Z" style="fill:#263238"></path><path d="M370.29,348.07s6.73,8.46,10,10.63,3.91,2.39,5.65,2.61,20.62,1.52,23.23,1.52,4.34-.22,5.42-1.3,3.69-8,3.69-8Z" style="fill:#FBC02D"></path><path d="M409.16,363.33c-2.74,0-21.61-1.31-23.3-1.52-1.85-.24-2.56-.49-5.86-2.69s-9.82-10.39-10.1-10.74a.52.52,0,0,1,0-.56.49.49,0,0,1,.49-.25l48,5.43a.48.48,0,0,1,.37.23.49.49,0,0,1,0,.44c-.27.72-2.67,7.08-3.8,8.21S411.9,363.33,409.16,363.33ZM371.45,348.7c1.85,2.26,6.59,7.91,9.11,9.59,3.27,2.18,3.82,2.32,5.43,2.52s20.58,1.52,23.17,1.52,4.1-.19,5.07-1.16c.69-.68,2.3-4.51,3.35-7.25Z" style="fill:#263238"></path><path d="M390.48,383.24s-2.38,6.73-2.38,7.81,2.38,2.61,3.25,2.61,17.15.22,18.24-.22,7-6.73,6.73-7.6-3.47-2.38-3.47-2.38Z" style="fill:#263238"></path><path d="M400.51,394.21c-2.19,0-4.89,0-8.23,0h-.93c-1.09,0-3.75-1.66-3.75-3.11,0-1.11,2-6.84,2.41-8a.46.46,0,0,1,.48-.33l22.36.22a.52.52,0,0,1,.21,0c1,.49,3.5,1.73,3.75,2.72.34,1.39-6.14,7.83-7,8.19C409.4,394.06,407.87,394.21,400.51,394.21Zm-9.67-10.47a58.38,58.38,0,0,0-2.24,7.31c0,.74,2.08,2.11,2.75,2.11h.94c14,.14,16.73-.06,17.12-.19.9-.36,6.25-6.08,6.42-7.1a11.31,11.31,0,0,0-3.1-1.92Z" style="fill:#263238"></path><path d="M477.44,400.31c1.39-2.5-1.11-6.93-1.11-6.93L473,386.71l-45.38,1.09s-6.95,9.12-8,9.55a9.57,9.57,0,0,1-2.83.43s-26.92-1.08-28.87-1.95-3.47-3.47-4.34-4.12a19.67,19.67,0,0,0-4.13-1.52s-2.82-13-7.81-19.76S355.53,357.84,347.71,357s-18.67,4.12-23,9.33-7.16,12.81-7.82,21.06l-6.51-.86s-4.56,4.77-7.16,5.86-79.47-2.83-81.64-3.48-7.81-6.08-9.12-6.51-6.29-1.09-6.29-1.09-3.26-13.89-11.29-19.1S176,357,169.68,360.66s-9.12,10.42-10,12.59-1.31,3.48-1.31,3.48l-3.7-1.15c-.21,3.23-.28,6.25.05,7.26a98.51,98.51,0,0,0,5,10.81,13.33,13.33,0,0,0,3.6,3.61l.42.22c-1.23-4-3.63-12.09-3.63-14.68,0-3.47,1.74-14.33,9.55-17.8s16.94-3.26,24.32,2.61,10,17.8,12.37,25.18,5.21,12.38,8.47,14.55l2,1.32c1.74,0,2.78,0,2.78,0l107.84,2.5v-4.71s-4.44-1.67-5.27-2.5-3.88-11.92-1.11-22.18,11.37-20.51,22.46-21.34,23.84,5.82,28.27,16.63,6.1,27.17,6.66,28.28,1.94,1.94,5,2.77l3.05.83,5.54,2.5L465,407.51S476.05,402.8,477.44,400.31Z" style="fill:#545454"></path><path d="M392.05,411.9a.46.46,0,0,1-.2,0l-5.55-2.49-3-.81c-3.12-.85-4.66-1.73-5.31-3a25.67,25.67,0,0,1-.78-4c-.94-5.76-2.68-16.47-5.89-24.29-4.11-10-16.3-17.18-27.78-16.33-10.94.83-19.36,11.18-22,21s.2,20.8,1,21.7a25.34,25.34,0,0,0,5.08,2.38.5.5,0,0,1,.33.47v4.71a.55.55,0,0,1-.15.36.52.52,0,0,1-.36.14l-107.85-2.5s-1,0-2.75,0a.5.5,0,0,1-.28-.08l-2-1.33c-3.27-2.18-6.19-7.16-8.66-14.8-.36-1.11-.72-2.31-1.1-3.57-2.2-7.35-5-16.49-11.11-21.38-6.73-5.35-15.41-6.28-23.8-2.54-7.56,3.36-9.26,13.91-9.26,17.34,0,1.81,1.32,7.1,3.61,14.54a.49.49,0,0,1-.16.53.5.5,0,0,1-.55.06l-.43-.23a14,14,0,0,1-3.8-3.8,99,99,0,0,1-5-10.9c-.31-.95-.34-3.38-.08-7.46a.49.49,0,0,1,.65-.44l3.24,1c.2-.56.58-1.6,1.15-3,3-7.41,7.18-11.07,10.2-12.84,5.95-3.49,17-4.14,25.71,1.53,7.5,4.87,10.86,16.86,11.42,19.07a54.76,54.76,0,0,1,6.05,1.07,18.9,18.9,0,0,1,3.61,2.62c1.94,1.58,4.35,3.54,5.5,3.88,3.31,1,79.3,4.22,81.3,3.49,2.47-1,6.94-5.69,7-5.74a.51.51,0,0,1,.43-.15l6,.8c.73-8.1,3.59-15.67,7.89-20.82s15.31-10.4,23.45-9.51c8.32.93,19.42,7.18,24.23,13.66,4.64,6.26,7.37,17.62,7.84,19.65a17,17,0,0,1,4,1.53,8.18,8.18,0,0,1,1.19,1.28,9.72,9.72,0,0,0,3.05,2.78c1.37.61,17.91,1.48,28.7,1.92a9.06,9.06,0,0,0,2.61-.4c.66-.32,4.5-5,7.82-9.39a.47.47,0,0,1,.39-.2L473,386.21a.52.52,0,0,1,.46.28l3.35,6.66c.09.17,2.6,4.69,1.1,7.4s-11.57,6.93-12.72,7.42a.33.33,0,0,1-.17,0l-72.91,3.88Zm-46.61-52.09c11.28,0,22.81,7.19,26.84,17,3.25,7.92,5,18.71,6,24.51a36.63,36.63,0,0,0,.69,3.73c.5,1,1.9,1.76,4.67,2.52l3.05.83,5.51,2.47,72.7-3.87c3.1-1.32,11.09-5,12.15-7h0c1-1.84-.45-5.27-1.11-6.44l-3.21-6.4-44.82,1.07c-1.8,2.36-7,9.09-8.1,9.52a9.75,9.75,0,0,1-3,.48c-2.79-.12-27.1-1.12-29.08-2a10.59,10.59,0,0,1-3.42-3.07,8.63,8.63,0,0,0-1-1.11,18.38,18.38,0,0,0-4-1.44.51.51,0,0,1-.36-.38c0-.13-2.86-13-7.73-19.56-4.66-6.29-15.44-12.37-23.53-13.27-7.7-.86-18.46,4.22-22.58,9.16-4.25,5.11-7.06,12.68-7.7,20.78a.5.5,0,0,1-.18.35.48.48,0,0,1-.38.11l-6.27-.84c-.88.91-4.75,4.8-7.15,5.8-1.64.68-26.51-.37-41.2-1.05-18.72-.87-39.57-2-40.77-2.41s-3.73-2.35-5.84-4.07a24,24,0,0,0-3.29-2.45c-1.25-.41-6.16-1-6.21-1.06a.51.51,0,0,1-.42-.38c0-.14-3.31-13.76-11.07-18.8-8.4-5.45-19-4.84-24.66-1.51-2.89,1.69-6.92,5.2-9.78,12.35-.85,2.13-1.29,3.43-1.29,3.44a.5.5,0,0,1-.63.32l-3.09-1c-.26,4.36-.11,5.91.07,6.44a94.86,94.86,0,0,0,4.95,10.72,11,11,0,0,0,2.71,2.89c-1.37-4.51-3.25-11.13-3.25-13.49,0-3.6,1.81-14.68,9.85-18.26,8.75-3.88,17.8-2.91,24.83,2.67,6.41,5.09,9.2,14.4,11.45,21.88.38,1.26.74,2.45,1.09,3.55,2.4,7.42,5.18,12.23,8.27,14.28.66.45,1.29.86,1.87,1.24,1.64,0,2.61,0,2.61,0L327,410.61v-3.86c-1.1-.42-4.35-1.71-5.12-2.49-1.12-1.12-4-12.52-1.24-22.66s11.49-20.86,22.9-21.71C344.14,359.84,344.79,359.81,345.44,359.81ZM465,407.51h0Z" style="fill:#263238"></path><ellipse cx="182.92" cy="398.5" rx="19.11" ry="28.6" style="fill:#787878"></ellipse><path d="M182.92,427.59c-10.81,0-19.61-13-19.61-29.09s8.8-29.1,19.61-29.1,19.61,13.06,19.61,29.1S193.73,427.59,182.92,427.59Zm0-57.19c-10.26,0-18.61,12.61-18.61,28.1s8.35,28.09,18.61,28.09,18.61-12.6,18.61-28.09S193.18,370.4,182.92,370.4Z" style="fill:#263238"></path><ellipse cx="182.92" cy="398.5" rx="14.93" ry="22.34" style="fill:#fff"></ellipse><path d="M182.92,421.34c-8.51,0-15.43-10.25-15.43-22.84s6.92-22.84,15.43-22.84,15.43,10.24,15.43,22.84S191.43,421.34,182.92,421.34Zm0-44.68c-8,0-14.43,9.8-14.43,21.84s6.47,21.84,14.43,21.84,14.43-9.8,14.43-21.84S190.88,376.66,182.92,376.66Z" style="fill:#263238"></path><path d="M184.79,398.5c0,1.55-.84,2.8-1.87,2.8s-1.87-1.25-1.87-2.8.84-2.8,1.87-2.8S184.79,397,184.79,398.5Z" style="fill:#fff"></path><path d="M182.92,401.8c-1.33,0-2.37-1.45-2.37-3.3s1-3.3,2.37-3.3,2.37,1.45,2.37,3.3S184.25,401.8,182.92,401.8Zm0-5.6c-.74,0-1.37,1.05-1.37,2.3s.63,2.3,1.37,2.3,1.37-1.05,1.37-2.3S183.66,396.2,182.92,396.2Z" style="fill:#263238"></path><path d="M157.52,341.26c.11,1,.17,4.5.21,8.4,1.45-.15,3.77-.41,4.94-.6,1.77-.3,6.2-7.83,7.09-8.72a1.3,1.3,0,0,0,.15-1.77h-7.83l-.57-.51-.39.42S157.24,338.76,157.52,341.26Z" style="fill:#FBC02D"></path><path d="M157.73,350.16a.5.5,0,0,1-.33-.12.53.53,0,0,1-.17-.37c0-4.71-.12-7.53-.21-8.36h0a2.32,2.32,0,0,1,.54-1.83,5.41,5.41,0,0,1,3.32-1.47l.26-.29a.5.5,0,0,1,.71,0l.42.38h7.64a.51.51,0,0,1,.38.18,1.77,1.77,0,0,1-.18,2.45c-.23.23-.85,1.15-1.52,2.13-2.4,3.54-4.49,6.5-5.84,6.72-1.14.19-3.33.44-5,.61Zm.28-9c.1.83.17,3.49.22,7.91,1.36-.15,3.33-.38,4.36-.55s3.83-4.31,5.18-6.29A21.23,21.23,0,0,1,169.4,340a.79.79,0,0,0,.23-.92h-7.55a.51.51,0,0,1-.34-.13l-.19-.18-.06.06a.49.49,0,0,1-.33.16,4.74,4.74,0,0,0-2.84,1.14,1.42,1.42,0,0,0-.31,1.08Z" style="fill:#263238"></path><path d="M193.48,360.63a.49.49,0,0,1-.49-.4c-.46-2.12-4.44-20.8-4.36-22.68s5.61-18.89,6.24-20.82a.51.51,0,0,1,.63-.32.49.49,0,0,1,.32.63c-2.45,7.54-6.13,19.23-6.19,20.55-.06,1.49,3.11,16.7,4.33,22.44a.5.5,0,0,1-.38.59Z" style="fill:#263238"></path><path d="M200.52,346.09a8.21,8.21,0,0,1-3.74-1.27,3.48,3.48,0,0,1-.74-1.93v-.1c.06-.48.27-1.64.84-2,.36-.21,2.1-.35,5.18-.41a.49.49,0,0,1,.5.38,9.83,9.83,0,0,0,1.08.14,13.61,13.61,0,0,0,3.92-.33.57.57,0,0,1,.26,0c3.61.95,3.61,1.75,3.61,2a6.6,6.6,0,0,1-.37,1.79.51.51,0,0,1-.31.3l-3.15,1.11a.51.51,0,0,1-.5-.1.5.5,0,0,1-.15-.48L207,345a44.55,44.55,0,0,0-5.91-.58,2.74,2.74,0,0,1,.2,1.21.62.62,0,0,1-.45.46A1,1,0,0,1,200.52,346.09ZM197,342.86a2.45,2.45,0,0,0,.45,1.25,8.17,8.17,0,0,0,2.77,1,7,7,0,0,0-.34-.91.5.5,0,0,1,0-.43.49.49,0,0,1,.34-.27c1.5-.35,6.82.49,7.43.59a.52.52,0,0,1,.33.21.49.49,0,0,1,.09.28l2.08-.73a5,5,0,0,0,.23-1.15,9.07,9.07,0,0,0-2.73-1.09,13.57,13.57,0,0,1-4.12.32c-1.15-.09-1.71-.22-1.95-.5a32.08,32.08,0,0,0-4.26.28A4,4,0,0,0,197,342.86Z" style="fill:#263238"></path><path d="M204.6,347.51a13.74,13.74,0,0,1-3.7-.52.51.51,0,0,1-.33-.63.51.51,0,0,1,.63-.33,12,12,0,0,0,5.12.33.51.51,0,0,1,.59.4.5.5,0,0,1-.4.58A9.75,9.75,0,0,1,204.6,347.51Z" style="fill:#263238"></path><path d="M255.17,347.81a8,8,0,0,1-3.73-1.27,3.4,3.4,0,0,1-.74-1.93.17.17,0,0,1,0-.1c.06-.48.26-1.64.83-2,.36-.22,2.11-.36,5.19-.41a.51.51,0,0,1,.49.37,9.77,9.77,0,0,0,1.09.14,13.06,13.06,0,0,0,3.91-.33.57.57,0,0,1,.26,0c3.61.95,3.61,1.75,3.61,2a6.31,6.31,0,0,1-.37,1.79.5.5,0,0,1-.3.3l-3.15,1.1a.5.5,0,0,1-.5-.09.51.51,0,0,1-.16-.49l.06-.24a43.08,43.08,0,0,0-5.92-.58,2.57,2.57,0,0,1,.2,1.2.63.63,0,0,1-.44.47A1.55,1.55,0,0,1,255.17,347.81Zm-3.47-3.23a2.48,2.48,0,0,0,.44,1.26,8.71,8.71,0,0,0,2.77,1,6.62,6.62,0,0,0-.34-.92.51.51,0,0,1,.34-.7c1.5-.35,6.83.49,7.43.59a.49.49,0,0,1,.34.22.54.54,0,0,1,.08.28l2.08-.74a4.89,4.89,0,0,0,.24-1.14,9,9,0,0,0-2.74-1.1,13.53,13.53,0,0,1-4.12.32c-1.15-.08-1.71-.22-2-.5a32.23,32.23,0,0,0-4.26.28A4.16,4.16,0,0,0,251.7,344.58Z" style="fill:#263238"></path><path d="M259.25,349.24a13.41,13.41,0,0,1-3.69-.53.5.5,0,0,1-.33-.63.49.49,0,0,1,.63-.32,12.06,12.06,0,0,0,5.11.32.51.51,0,0,1,.59.4.49.49,0,0,1-.4.58A9.64,9.64,0,0,1,259.25,349.24Z" style="fill:#263238"></path><path d="M247.29,389.89a.53.53,0,0,1-.45-.25c-.34-.58,0-1.72,1-4.61a27,27,0,0,0,1.53-5.66c.08-1.26-.65-4.72-1.49-8.73a152.27,152.27,0,0,1-2.81-16.32c-.86-9.47,2.75-18.72,2.79-18.82a.5.5,0,1,1,.93.37c0,.09-3.56,9.13-2.72,18.36a149.46,149.46,0,0,0,2.79,16.21c.89,4.24,1.59,7.59,1.51,9a27.39,27.39,0,0,1-1.58,5.92,17,17,0,0,0-1.06,3.81.48.48,0,0,1-.17.67A.54.54,0,0,1,247.29,389.89Z" style="fill:#263238"></path><ellipse cx="347.28" cy="398.5" rx="22.54" ry="28.6" style="fill:#787878"></ellipse><path d="M347.28,427.59c-12.71,0-23-13-23-29.09s10.33-29.1,23-29.1,23,13.06,23,29.1S360,427.59,347.28,427.59Zm0-57.19c-12.15,0-22,12.61-22,28.1s9.89,28.09,22,28.09,22-12.6,22-28.09S359.43,370.4,347.28,370.4Z" style="fill:#263238"></path><ellipse cx="347.28" cy="398.5" rx="17.61" ry="22.34" style="fill:#fff"></ellipse><path d="M347.28,421.34c-10,0-18.11-10.25-18.11-22.84s8.12-22.84,18.11-22.84,18.1,10.24,18.1,22.84S357.26,421.34,347.28,421.34Zm0-44.68c-9.44,0-17.11,9.8-17.11,21.84s7.67,21.84,17.11,21.84,17.1-9.8,17.1-21.84S356.71,376.66,347.28,376.66Z" style="fill:#263238"></path><ellipse cx="347.63" cy="398.5" rx="1.98" ry="2.8" style="fill:#fff"></ellipse><path d="M347.63,401.8c-1.39,0-2.48-1.45-2.48-3.3s1.09-3.3,2.48-3.3,2.47,1.45,2.47,3.3S349,401.8,347.63,401.8Zm0-5.6c-.81,0-1.48,1.05-1.48,2.3s.67,2.3,1.48,2.3,1.47-1.05,1.47-2.3S348.43,396.2,347.63,396.2Z" style="fill:#263238"></path><path d="M455.4,360.18c0,2.78-1.84,5-4.12,5s-4.11-2.25-4.11-5,1.84-5,4.11-5S455.4,357.4,455.4,360.18Z" style="fill:#fff"></path><path d="M451.28,365.71c-2.54,0-4.61-2.48-4.61-5.53s2.07-5.53,4.61-5.53,4.62,2.48,4.62,5.53S453.83,365.71,451.28,365.71Zm0-10.06c-2,0-3.61,2-3.61,4.53s1.62,4.53,3.61,4.53,3.62-2,3.62-4.53S453.28,355.65,451.28,355.65Z" style="fill:#263238"></path><path d="M357.63,303.93l-1.76-.71c-1.22-.23-2.44-.43-3.58-.61l15.32,29,6.5,0Z" style="fill:#fff"></path><path d="M367.61,332.15a.49.49,0,0,1-.44-.27l-15.32-29a.53.53,0,0,1,0-.53.52.52,0,0,1,.49-.2c1.14.17,2.36.38,3.59.61.66.25,1.25.49,1.87.74a.52.52,0,0,1,.23.21l16.48,27.69a.51.51,0,0,1-.43.76l-6.5,0ZM353.2,303.26l14.71,27.89,5.32,0-15.94-26.8c-.55-.23-1.08-.44-1.61-.64C354.88,303.54,354,303.4,353.2,303.26Z" style="fill:#263238"></path><path d="M345.87,331.73l12.15-.05L346.4,301.85l-13.26-1Z" style="fill:#fff"></path><path d="M345.87,332.23a.5.5,0,0,1-.46-.31L332.68,301a.48.48,0,0,1,.06-.49.47.47,0,0,1,.44-.2l13.25,1a.48.48,0,0,1,.43.31l11.62,29.83a.5.5,0,0,1-.05.46.49.49,0,0,1-.41.22l-12.15.05Zm-12-30.82,12.29,29.82,11.09,0-11.24-28.86Z" style="fill:#263238"></path></g></svg>